<svg width="32" height="28" viewBox="0 0 32 28" fill="none" xmlns="http://www.w3.org/2000/svg">
<rect width="32" height="28" fill="#9B9B9B"/>
<rect width="1683" height="986" transform="translate(-1138 -847)" fill="#F6F6F6"/>
<rect x="-19.5" y="-21.5" width="71" height="71" rx="35.5" fill="#1A273B"/>
<rect x="-19.5" y="-21.5" width="71" height="71" rx="35.5" stroke="#DBEAF2" stroke-width="5"/>
<g clip-path="url(#clip0_0_1)">
<path d="M31.7801 24.0676C31.5325 23.5621 31.1041 23.1802 30.5726 22.9915C30.4393 22.9351 28.2473 21.9217 29.749 17.1794C29.7573 17.1495 29.7651 17.122 29.7705 17.0985C30.1206 15.9272 30.2976 14.7148 30.2976 13.4936C30.2976 12.5626 30.1951 11.6379 29.9936 10.7344C30.0833 10.6927 30.174 10.65 30.2633 10.6074C30.7815 10.3578 31.1732 9.92151 31.3629 9.37781C31.5526 8.83509 31.5198 8.25167 31.2693 7.73298C30.9119 6.99366 30.1505 6.51712 29.3278 6.51712C29.0023 6.51712 28.689 6.5887 28.3944 6.72941C28.1585 6.84364 27.9218 6.94708 27.6859 7.0417C27.7041 6.95199 27.7158 6.86227 27.7222 6.77059C27.7639 6.19698 27.5781 5.64102 27.2006 5.20714C24.7885 2.42734 21.2914 0.833984 17.6081 0.833984C13.6051 0.833984 9.91976 2.66022 7.49688 5.84497C7.1483 6.30239 6.99975 6.86913 7.0777 7.43833C7.07966 7.45745 7.08309 7.47804 7.08603 7.49716H7.07427C6.06432 7.49716 5.15734 8.13597 4.81955 9.08659C4.60628 9.68815 4.63913 10.3368 4.91319 10.9128C5.0936 11.2913 5.36423 11.6095 5.69908 11.8429C5.68927 11.8502 5.65446 11.8811 5.65446 11.8811C5.62456 11.9066 5.57455 11.9502 5.51915 12.0071C5.45934 12.0698 5.41767 12.1243 5.38923 12.1605L5.37452 12.1787C5.35001 12.2106 5.30834 12.263 5.2647 12.3312C5.21764 12.4027 5.18675 12.4645 5.16665 12.5052L5.15293 12.5307C5.13479 12.566 5.1039 12.6258 5.07399 12.7013C5.04114 12.7837 5.02153 12.8518 5.00879 12.8974L5.00241 12.9209C4.99163 12.9602 4.97153 13.0264 4.9578 13.1087C4.94162 13.193 4.93623 13.2636 4.93329 13.3127C4.92789 13.3524 4.92054 13.4161 4.92054 13.4941V13.4995L4.91858 13.525L4.92299 13.5921C4.92397 13.797 4.93133 14.0103 4.94456 14.2255C5.01516 17.7986 4.167 19.0806 3.65517 19.5268C3.30316 19.8327 2.93007 19.8969 2.67807 19.8969C2.6163 19.8969 2.57463 19.8925 2.55943 19.8915C2.42706 19.866 2.29077 19.8533 2.15643 19.8533C1.14747 19.8533 0.262055 20.5681 0.0497705 21.5535C-0.0708343 22.1144 0.0350626 22.6904 0.347361 23.1728C0.659658 23.6558 1.14208 23.9886 1.70637 24.1093C1.98925 24.17 2.31871 24.2019 2.65797 24.2019C3.45661 24.2019 5.00683 24.0225 6.42173 22.8262C6.90268 22.4188 7.32528 21.9325 7.68661 21.3701C10.0757 24.3588 13.7301 26.1537 17.6091 26.1537C20.4889 26.1537 23.2897 25.1574 25.5273 23.3753C26.6878 26.1733 29.1077 27.04 29.1366 27.0499C29.3661 27.1278 29.6019 27.167 29.8397 27.167C30.7633 27.167 31.5835 26.5836 31.8821 25.7154C32.0699 25.1692 32.0336 24.5848 31.7806 24.0686L31.7801 24.0676ZM8.34601 6.49016C10.5654 3.57309 13.9414 1.90031 17.6086 1.90031C20.9835 1.90031 24.1864 3.36031 26.3975 5.90527C26.7902 6.35877 26.7412 7.04415 26.2877 7.43588C25.8332 7.82858 25.1464 7.77955 24.7527 7.32704C22.9554 5.25665 20.3521 4.06972 17.6086 4.06972C14.6283 4.06972 11.8833 5.4307 10.0796 7.80259C9.86534 8.08302 9.54078 8.23157 9.21133 8.23157C8.98287 8.23157 8.75146 8.15901 8.55536 8.01095C8.07637 7.64816 7.98273 6.96767 8.3465 6.49016H8.34601ZM5.82459 9.44351C6.06972 8.75567 6.82816 8.3963 7.51845 8.63947L8.90393 9.13023C9.59422 9.37438 9.95457 10.1309 9.71042 10.8187C9.51725 11.3614 9.0064 11.6997 8.46024 11.6997C8.31316 11.6997 8.16363 11.6752 8.01754 11.6227L6.63107 11.132C5.94078 10.8878 5.58043 10.1323 5.82459 9.44351ZM30.8726 25.3678C30.7182 25.8178 30.2927 26.0992 29.8392 26.0992C29.722 26.0992 29.6014 26.0801 29.4842 26.0394C29.446 26.0267 26.6436 25.0123 26.0828 21.4148C23.9614 23.6719 20.9482 25.0859 17.6086 25.0859C13.3006 25.0859 9.53441 22.7331 7.52825 19.2502C7.11888 20.4215 6.51929 21.3442 5.73193 22.0095C4.69306 22.8895 3.50711 23.1336 2.65699 23.1336C2.36921 23.1336 2.12064 23.1057 1.92846 23.0645C1.34063 22.9385 0.966564 22.3615 1.09207 21.7761C1.21709 21.1946 1.78874 20.8225 2.37215 20.9397C2.43834 20.9524 3.45073 21.1167 4.3538 20.3298C5.16665 19.6229 6.08835 17.981 6.00892 14.1829C5.99618 13.975 5.98981 13.7671 5.98882 13.5568C5.98784 13.5524 5.98784 13.5485 5.98784 13.5441V13.5421C5.98784 13.5259 5.98686 13.5093 5.98686 13.4931C5.98686 13.4651 5.99324 13.4396 5.9952 13.4122C5.99716 13.3739 5.99961 13.3352 6.00598 13.2989C6.01236 13.2646 6.02314 13.2318 6.03246 13.1999C6.04226 13.1636 6.05158 13.1283 6.06433 13.0945C6.07707 13.0626 6.09325 13.0327 6.10894 13.0028C6.12512 12.971 6.14081 12.9386 6.15993 12.9087C6.17807 12.8798 6.19964 12.8543 6.22072 12.8278C6.24327 12.7989 6.26435 12.7714 6.28887 12.7454C6.3124 12.7209 6.33789 12.6993 6.36339 12.6783C6.38986 12.6538 6.41683 12.6302 6.44673 12.6091C6.47321 12.59 6.50311 12.5738 6.53302 12.5567C6.5639 12.5385 6.59479 12.5204 6.62813 12.5057C6.66 12.492 6.69333 12.4812 6.72618 12.4694C6.7605 12.4586 6.79433 12.4459 6.82963 12.4385C6.86493 12.4302 6.90121 12.4268 6.93847 12.4214C6.96641 12.4184 6.99289 12.4106 7.02279 12.4096C7.03113 12.4086 7.03995 12.4106 7.04926 12.4106C7.0576 12.4106 7.06544 12.4086 7.07378 12.4086C7.09829 12.4086 7.1228 12.414 7.14732 12.416C7.18997 12.4179 7.23164 12.4204 7.27332 12.4277C7.29979 12.4331 7.32577 12.4415 7.35225 12.4488C7.39588 12.4596 7.43755 12.4714 7.47923 12.4871C7.50374 12.4978 7.52629 12.5096 7.54982 12.5214C7.58954 12.5405 7.62778 12.5596 7.66504 12.5841C7.68759 12.5979 7.70769 12.616 7.72877 12.6322C7.76309 12.6577 7.79594 12.6832 7.82682 12.7121C7.84692 12.7322 7.86506 12.7547 7.88418 12.7763C7.91066 12.8062 7.93762 12.8361 7.96116 12.869C7.9793 12.8945 7.994 12.9224 8.0092 12.9489C8.02832 12.9817 8.04842 13.0141 8.0646 13.0489C8.07833 13.0798 8.08813 13.1117 8.09892 13.145C8.11069 13.1793 8.12343 13.2131 8.13177 13.2494C8.13912 13.2847 8.14353 13.321 8.14795 13.3573C8.15138 13.3852 8.15873 13.4127 8.16069 13.4416C8.1705 13.6549 8.1754 13.8627 8.18079 14.0696C8.48034 18.9973 12.5932 22.915 17.6076 22.915C22.622 22.915 27.0545 18.6879 27.0545 13.4926C27.0545 12.5464 26.9147 11.6188 26.6397 10.726C26.4966 10.7555 26.3549 10.7809 26.2137 10.8045C25.8798 9.43517 25.3626 8.73851 25.3606 8.73605C26.4461 8.60957 27.6148 8.28648 28.8562 7.69032C29.397 7.42999 30.0475 7.656 30.3088 8.19578C30.5692 8.73655 30.3417 9.38516 29.8009 9.64402C29.4372 9.81905 29.0788 9.97348 28.7258 10.1103C29.0597 11.2026 29.2303 12.3375 29.2303 13.4926C29.2303 14.6477 29.0562 15.7743 28.7366 16.8323C28.7346 16.8406 28.7346 16.8484 28.7312 16.8568C26.8893 22.6772 30.0667 23.9411 30.202 23.9911C30.7707 24.1852 31.0668 24.8005 30.8717 25.3668L30.8726 25.3678Z" fill="white"/>
<path d="M13.7915 14.3406C14.5811 14.3406 15.2212 13.7021 15.2212 12.9145C15.2212 12.1268 14.5811 11.4883 13.7915 11.4883C13.002 11.4883 12.3619 12.1268 12.3619 12.9145C12.3619 13.7021 13.002 14.3406 13.7915 14.3406Z" fill="#001130"/>
<path d="M22.2232 15.2596C23.0127 15.2596 23.6528 14.6211 23.6528 13.8334C23.6528 13.0457 23.0127 12.4072 22.2232 12.4072C21.4336 12.4072 20.7936 13.0457 20.7936 13.8334C20.7936 14.6211 21.4336 15.2596 22.2232 15.2596Z" fill="#001130"/>
<path d="M8.55462 8.01055C8.75171 8.15959 8.98213 8.23165 9.21158 8.23165C9.54054 8.23165 9.8651 8.08359 10.0789 7.80267C11.883 5.43078 14.628 4.07079 17.6088 4.07079C20.3513 4.07079 22.9546 5.25771 24.7524 7.32761C25.1461 7.78061 25.8325 7.82964 26.287 7.43694C26.741 7.04473 26.7905 6.35934 26.3968 5.90633C24.1857 3.36088 20.9828 1.90088 17.6088 1.90088C13.9416 1.90088 10.5652 3.57366 8.34577 6.49073C7.98249 6.96824 8.07613 7.64873 8.55462 8.01104V8.01055Z" fill="#001130"/>
<path d="M12.7184 18.5495C14.603 20.3306 16.4572 20.9027 18.0633 20.9027C20.9318 20.9027 23.0081 19.076 23.04 19.0471C23.4841 18.6465 23.518 17.9651 23.1189 17.5204C22.7193 17.0757 22.033 17.0385 21.5849 17.4341C21.2211 17.7562 17.9211 20.4777 14.2152 16.9743C13.7789 16.5619 13.0906 16.5806 12.6773 17.0154C12.264 17.4503 12.2826 18.1372 12.7184 18.5495Z" fill="#001130"/>
<path d="M30.2037 23.9918C30.0674 23.9409 26.89 22.677 28.7324 16.857C28.7348 16.8492 28.7353 16.8409 28.7373 16.8325C29.0569 15.7745 29.231 14.6538 29.231 13.4928C29.231 12.3319 29.0604 11.2033 28.7265 10.1105C29.08 9.97373 29.4384 9.8193 29.8012 9.64477C30.3424 9.38493 30.5699 8.73631 30.3091 8.19604C30.0482 7.65577 29.3977 7.42975 28.8569 7.68959C21.7701 11.095 17.0234 5.60597 16.8224 5.36771C16.438 4.90931 15.7536 4.84655 15.2923 5.22896C14.8305 5.61235 14.7672 6.29626 15.1511 6.75711C15.1967 6.81153 18.7408 10.9646 24.3205 10.9646C25.0593 10.9646 25.8339 10.891 26.6409 10.7263C26.9155 11.6186 27.0557 12.5466 27.0557 13.4924C27.0557 18.6882 22.8178 22.9152 17.6088 22.9152C12.3997 22.9152 8.48155 18.997 8.18151 14.0694C8.1766 13.8625 8.17121 13.6546 8.16091 13.4414C8.15944 13.4124 8.15209 13.3855 8.14817 13.357C8.14375 13.3208 8.14032 13.2845 8.13199 13.2492C8.12365 13.2129 8.1114 13.1791 8.09963 13.1448C8.08836 13.1124 8.07855 13.0796 8.06482 13.0487C8.04913 13.0139 8.02952 12.9815 8.0104 12.9487C7.99472 12.9217 7.98001 12.8937 7.96187 12.8682C7.93882 12.8354 7.91186 12.8055 7.88539 12.7756C7.86627 12.754 7.84813 12.732 7.82754 12.7119C7.79714 12.6824 7.7638 12.6574 7.72997 12.6319C7.7084 12.6158 7.6883 12.5986 7.66526 12.5839C7.62849 12.5599 7.58976 12.5408 7.55005 12.5216C7.52651 12.5104 7.50396 12.4976 7.47945 12.4878C7.43876 12.4716 7.3961 12.4599 7.35296 12.4486C7.32649 12.4417 7.3005 12.4334 7.27354 12.428C7.23236 12.4206 7.19019 12.4182 7.14803 12.4152C7.12352 12.4138 7.09949 12.4079 7.07449 12.4079C7.06616 12.4079 7.05831 12.4103 7.04998 12.4103C7.04066 12.4103 7.03233 12.4084 7.02301 12.4089C6.99409 12.4103 6.96712 12.4177 6.93869 12.4216C6.90241 12.426 6.86564 12.4295 6.83034 12.4378C6.79455 12.4461 6.76121 12.4584 6.72689 12.4697C6.69356 12.4809 6.66022 12.4912 6.62835 12.5055C6.59501 12.5207 6.56413 12.5388 6.53275 12.5569C6.50333 12.5736 6.47392 12.5898 6.44646 12.6089C6.41705 12.63 6.39057 12.654 6.36312 12.6775C6.33762 12.6996 6.31213 12.7207 6.2886 12.7447C6.26408 12.7707 6.24251 12.7986 6.22045 12.8271C6.19937 12.8535 6.1778 12.8795 6.15966 12.908C6.14054 12.9379 6.12485 12.9702 6.10867 13.0021C6.09298 13.0325 6.0768 13.0619 6.06406 13.0943C6.05033 13.1281 6.0415 13.1639 6.03121 13.1992C6.02189 13.232 6.0116 13.2644 6.00523 13.2987C5.99836 13.336 5.9964 13.3737 5.99395 13.412C5.99199 13.4394 5.98561 13.4654 5.98561 13.4928C5.98561 13.5095 5.9866 13.5257 5.98709 13.5419C5.98709 13.5429 5.98709 13.5433 5.98709 13.5443C5.98709 13.5487 5.98709 13.5527 5.98758 13.5571C5.98856 13.7669 5.99591 13.9758 6.00817 14.1831C6.0871 17.9817 5.1654 19.6231 4.35304 20.3301C3.44899 21.1169 2.4366 20.9527 2.37041 20.9404C1.78798 20.8228 1.21584 21.1949 1.09082 21.7768C0.964824 22.3627 1.3389 22.9397 1.92672 23.0652C2.11841 23.1064 2.36796 23.1344 2.65574 23.1344C3.50537 23.1344 4.69132 22.8897 5.73068 22.0102C6.51755 21.3444 7.11665 20.4217 7.52651 19.25C9.53365 22.7333 13.2994 25.0856 17.6078 25.0856C20.9475 25.0856 23.9602 23.6717 26.082 21.4145C26.6429 25.0116 29.4442 26.0264 29.483 26.0397C29.6006 26.0799 29.7203 26.099 29.8379 26.099C30.2909 26.099 30.717 25.8176 30.8714 25.3675C31.066 24.8003 30.7704 24.186 30.2017 23.9918H30.2037Z" fill="#001130"/>
<path d="M6.63129 11.132L8.01727 11.6227C8.16386 11.6747 8.31339 11.6992 8.46047 11.6992C9.00613 11.6992 9.51698 11.3609 9.71015 10.8187C9.95479 10.1303 9.59445 9.37436 8.90415 9.13021L7.51818 8.63945C6.82887 8.3953 6.07043 8.75516 5.8253 9.44349C5.58066 10.1318 5.941 10.8878 6.63129 11.132Z" fill="#15ECDA"/>
</g>
<defs>
<clipPath id="clip0_0_1">
<rect width="32" height="26.3321" fill="white" transform="translate(0 0.833984)"/>
</clipPath>
</defs>
</svg>
